<svg xmlns="http://www.w3.org/2000/svg" viewBox="0 0 480 480" width="512" height="512"><path d="M416 0H96C73.92.026 56.026 17.92 56 40v400c.026 22.08 17.92 39.974 40 40h320a8 8 0 008-8V8a8 8 0 00-8-8zm-96 16h48v75.056L347.576 80.84a8 8 0 00-7.152 0L320 91.056V16zM72 40c0-13.255 10.745-24 24-24h8v368h-8a39.583 39.583 0 00-24 8.208V40zm336 384H104v16h304v24H96c-13.255 0-24-10.745-24-24v-16c0-13.255 10.745-24 24-24h312v24zm0-40H120V16h184v88a8 8 0 0011.576 7.16L344 96.944l28.424 14.256A8 8 0 00384 104V16h24v368z" fill="#c1cfd9"/></svg>