<?xml version="1.0" encoding="iso-8859-1"?>
<!-- Generator: Adobe Illustrator 19.0.0, SVG Export Plug-In . SVG Version: 6.00 Build 0)  -->
<svg xmlns="http://www.w3.org/2000/svg" xmlns:xlink="http://www.w3.org/1999/xlink" version="1.1" id="Capa_1" x="0px" y="0px" viewBox="0 0 480 480" style="enable-background:new 0 0 480 480;" xml:space="preserve" width="512px" height="512px">
<g>
	<g>
		<path d="M416,0H96C73.92,0.026,56.026,17.92,56,40v400c0.026,22.08,17.92,39.974,40,40h320c4.418,0,8-3.582,8-8V8    C424,3.582,420.418,0,416,0z M320,16h48v75.056L347.576,80.84c-2.251-1.125-4.901-1.125-7.152,0L320,91.056V16z M72,40    c0-13.255,10.745-24,24-24h8v368h-8c-8.684,0.029-17.117,2.914-24,8.208V40z M408,424H104v16h304v24H96c-13.255,0-24-10.745-24-24    v-16c0-13.255,10.745-24,24-24h312V424z M408,384H120V16h184v88c-0.002,4.418,3.578,8.002,7.996,8.004    c1.243,0.001,2.468-0.288,3.58-0.844L344,96.944l28.424,14.256c3.952,1.975,8.757,0.372,10.732-3.58    c0.562-1.124,0.851-2.364,0.844-3.62V16h24V384z" fill="#c1cfd9"/>
	</g>
</g>
<g>
</g>
<g>
</g>
<g>
</g>
<g>
</g>
<g>
</g>
<g>
</g>
<g>
</g>
<g>
</g>
<g>
</g>
<g>
</g>
<g>
</g>
<g>
</g>
<g>
</g>
<g>
</g>
<g>
</g>
</svg>
